<?xml version="1.0" encoding="UTF-8"?>
<svg id="Layer_1" data-name="Layer 1" xmlns="http://www.w3.org/2000/svg" viewBox="0 0 1520 200">
  <defs>
    <style>
      .cls-1 {
        fill: #567e4e;
      }
    </style>
  </defs>
  <path d="M81.81,112.8c-.08,0-.15.02-.22.02v-.02c-9.7-.64-18.12-10.87-18.13-18.38.16-5.81.51-12.78.82-13.92,5.4-30.19,28.05-54.39,57.41-62.01-10.5-5.42-22.4-8.5-35.01-8.5C44.39,10,10,44.39,10,86.67v68.36c0,14.75,11.96,26.71,26.71,26.71s26.71-11.96,26.71-26.71v-14.28c0-10.35,7.98-18.8,18.16-19.47v-.02c.08,0,.15.02.22.02,2.34,0,4.24-1.9,4.24-4.24s-1.9-4.24-4.24-4.24Z"/>
  <g>
    <path class="cls-1" d="M146.69,47.05c4.07,0,8.06.31,11.96.89-4.87-8.27-11.24-15.56-18.74-21.47-27.4,2.55-50.69,19.21-62.58,42.63,4.08-3.53,9.38-5.68,15.18-5.68,1.67,0,3.3.19,4.87.52,13.62-10.58,30.71-16.89,49.29-16.89Z"/>
    <path class="cls-1" d="M165.34,62.65c-6.86-1.9-14.07-2.94-21.53-2.94-13.23,0-25.71,3.2-36.72,8.86,5.29,4.27,8.69,10.79,8.69,18.1v7.75c0,7.5-8.43,17.74-18.13,18.38v.02c-.08,0-.15-.02-.22-.02-2.34,0-4.24,1.9-4.24,4.24s1.9,4.24,4.24,4.24c.08,0,.15-.02.22-.02v.02c9.83.65,17.61,8.54,18.13,18.4v15.35c0,14.75,11.96,26.71,26.71,26.71s26.71-11.96,26.71-26.71v-68.36c0-8.39-1.36-16.46-3.86-24.02Z"/>
  </g>
  <g>
    <path d="M278.78,57.94l46.22,99.12h-10.7l-15.59-32.61h-42.7l-15.44,32.61h-11.05l46.83-99.12h2.43ZM277.53,78.99l-16.98,35.88h33.89l-16.9-35.88Z"/>
    <path d="M334.78,57.94h19.74c11.32,0,18.96.49,22.91,1.48,5.66,1.39,10.29,4.26,13.88,8.59,3.59,4.34,5.39,9.78,5.39,16.34s-1.75,12.05-5.26,16.34c-3.5,4.29-8.33,7.18-14.49,8.66-4.49,1.08-12.89,1.62-25.2,1.62h-7.08v46.09h-9.91V57.94ZM344.69,67.64v33.62l16.78.2c6.78,0,11.75-.62,14.89-1.85,3.14-1.23,5.62-3.23,7.41-5.99,1.8-2.76,2.7-5.84,2.7-9.25s-.9-6.35-2.7-9.11c-1.8-2.76-4.17-4.72-7.11-5.88-2.94-1.17-7.76-1.75-14.45-1.75h-17.52Z"/>
    <path d="M406.82,57.94h9.91v99.12h-9.91V57.94Z"/>
    <path d="M526.23,76.33l-7.82,6c-4.31-5.62-9.49-9.87-15.53-12.77s-12.68-4.35-19.91-4.35c-7.91,0-15.23,1.9-21.97,5.69-6.74,3.8-11.96,8.89-15.67,15.3-3.71,6.4-5.56,13.6-5.56,21.6,0,12.08,4.14,22.17,12.43,30.25,8.29,8.09,18.74,12.13,31.37,12.13,13.88,0,25.49-5.44,34.84-16.31l7.82,5.93c-4.94,6.29-11.11,11.15-18.5,14.59s-15.64,5.15-24.76,5.15c-17.34,0-31.02-5.77-41.04-17.32-8.4-9.75-12.6-21.52-12.6-35.31,0-14.51,5.09-26.72,15.26-36.62,10.17-9.91,22.92-14.86,38.24-14.86,9.25,0,17.61,1.83,25.07,5.49,7.46,3.66,13.57,8.79,18.33,15.4Z"/>
    <path d="M538.16,57.94h9.91v59.84c0,7.1.13,11.52.4,13.27.49,3.91,1.64,7.18,3.44,9.8,1.8,2.63,4.56,4.83,8.29,6.6,3.73,1.77,7.48,2.66,11.25,2.66,3.28,0,6.42-.7,9.43-2.09,3.01-1.39,5.53-3.32,7.55-5.79,2.02-2.47,3.5-5.46,4.45-8.96.67-2.52,1.01-7.68,1.01-15.5v-59.84h9.91v59.84c0,8.85-.87,16-2.59,21.46-1.73,5.46-5.19,10.21-10.38,14.25-5.19,4.04-11.47,6.06-18.83,6.06-8,0-14.85-1.91-20.55-5.73-5.71-3.82-9.52-8.87-11.46-15.16-1.21-3.86-1.82-10.83-1.82-20.89v-59.84Z"/>
    <path d="M623.21,57.94h19.74c11.01,0,18.46.45,22.37,1.35,5.88,1.35,10.67,4.24,14.35,8.67,3.68,4.43,5.53,9.88,5.53,16.36,0,5.4-1.27,10.14-3.81,14.24-2.54,4.09-6.17,7.19-10.88,9.28-4.72,2.09-11.23,3.16-19.54,3.21l35.65,46.02h-12.25l-35.65-46.02h-5.6v46.02h-9.91V57.94ZM633.11,67.64v33.69l17.08.14c6.61,0,11.51-.63,14.68-1.89,3.17-1.26,5.65-3.27,7.42-6.03s2.67-5.85,2.67-9.27-.9-6.34-2.7-9.06c-1.8-2.72-4.16-4.66-7.09-5.83-2.92-1.17-7.79-1.75-14.58-1.75h-17.48Z"/>
    <path d="M696.73,57.94h9.91v99.12h-9.91V57.94Z"/>
    <path d="M771.02,55.44c15.01,0,27.58,5.01,37.69,15.03,10.11,10.02,15.17,22.35,15.17,36.99s-5.05,26.82-15.14,36.93-22.4,15.16-36.92,15.16-27.11-5.03-37.22-15.09c-10.11-10.06-15.17-22.24-15.17-36.52,0-9.52,2.3-18.35,6.91-26.48,4.61-8.13,10.89-14.5,18.84-19.1,7.96-4.6,16.56-6.91,25.83-6.91ZM771.46,65.08c-7.33,0-14.29,1.91-20.86,5.73-6.57,3.82-11.7,8.97-15.39,15.44-3.69,6.47-5.53,13.69-5.53,21.65,0,11.78,4.08,21.73,12.25,29.84,8.17,8.12,18.01,12.17,29.53,12.17,7.69,0,14.81-1.87,21.36-5.6s11.65-8.83,15.32-15.31c3.67-6.47,5.5-13.67,5.5-21.58s-1.83-14.98-5.5-21.34-8.83-11.45-15.49-15.27c-6.66-3.82-13.72-5.73-21.19-5.73Z"/>
    <path d="M961.29,75.36l-13.2,12.58c-8.98-9.49-19.08-14.23-30.3-14.23-9.47,0-17.45,3.24-23.93,9.71s-9.73,14.46-9.73,23.95c0,6.61,1.44,12.48,4.31,17.6,2.87,5.13,6.93,9.15,12.19,12.07s11.09,4.38,17.5,4.38c5.47,0,10.48-1.02,15.01-3.07,4.53-2.05,9.51-5.77,14.95-11.16l12.79,13.35c-7.32,7.15-14.24,12.1-20.75,14.87-6.51,2.76-13.95,4.15-22.3,4.15-15.41,0-28.02-4.89-37.83-14.66-9.82-9.77-14.72-22.29-14.72-37.57,0-9.88,2.23-18.67,6.7-26.35s10.87-13.86,19.21-18.53c8.33-4.67,17.31-7.01,26.92-7.01,8.18,0,16.05,1.73,23.62,5.18,7.57,3.45,14.09,8.36,19.57,14.73Z"/>
    <path d="M1019.08,55.44c14.02,0,26.08,5.08,36.17,15.23,10.09,10.15,15.14,22.53,15.14,37.13s-4.98,26.71-14.94,36.72c-9.96,10.02-22.04,15.03-36.24,15.03s-27.24-5.14-37.08-15.43c-9.84-10.29-14.77-22.51-14.77-36.66,0-9.48,2.29-18.19,6.88-26.14,4.59-7.95,10.89-14.25,18.91-18.9,8.02-4.65,16.66-6.97,25.92-6.97ZM1018.87,73.91c-9.17,0-16.89,3.19-23.14,9.57-6.25,6.38-9.38,14.49-9.38,24.33,0,10.96,3.93,19.63,11.8,26.01,6.12,4.99,13.13,7.48,21.04,7.48,8.95,0,16.57-3.23,22.87-9.7s9.44-14.44,9.44-23.92-3.17-17.42-9.51-23.95c-6.34-6.54-14.05-9.8-23.13-9.8Z"/>
    <path d="M1082.72,57.94h22.35c14.41,0,25.11,1.79,32.11,5.36,7,3.57,12.77,9.38,17.3,17.42,4.53,8.04,6.8,17.43,6.8,28.17,0,7.64-1.27,14.66-3.8,21.06-2.54,6.4-6.04,11.71-10.5,15.94-4.47,4.22-9.3,7.14-14.51,8.76-5.21,1.62-14.23,2.43-27.06,2.43h-22.69V57.94ZM1101.46,76.13v62.53h8.76c8.62,0,14.88-.99,18.77-2.97,3.88-1.98,7.06-5.31,9.53-9.98,2.47-4.68,3.71-10.43,3.71-17.27,0-10.52-2.94-18.69-8.83-24.49-5.3-5.22-13.81-7.82-25.54-7.82h-6.4Z"/>
    <path d="M1173.83,57.94h54.11v18.46h-35.38v17.92h35.38v18.13h-35.38v26.08h35.38v18.53h-54.11V57.94Z"/>
    <path d="M1331.51,74.11l-13.29,13.14c-8.41-8.89-18.21-13.34-29.4-13.34-9.76,0-17.93,3.23-24.52,9.7s-9.88,14.33-9.88,23.58,3.42,17.68,10.25,24.33c6.83,6.65,15.27,9.97,25.3,9.97,6.52,0,12.02-1.37,16.49-4.11,4.47-2.74,8.08-7.03,10.83-12.87h-28.71v-17.72h49.86l.13,4.18c0,8.67-2.25,16.89-6.74,24.66-4.49,7.77-10.31,13.7-17.45,17.79-7.14,4.09-15.52,6.13-25.13,6.13-10.29,0-19.46-2.24-27.53-6.7-8.06-4.47-14.44-10.84-19.14-19.1-4.69-8.27-7.04-17.18-7.04-26.75,0-13.12,4.33-24.53,13-34.23,10.29-11.54,23.67-17.32,40.16-17.32,8.62,0,16.69,1.59,24.19,4.78,6.33,2.7,12.53,7.32,18.6,13.88Z"/>
    <path d="M1350.45,57.94h54.11v18.46h-35.38v17.92h35.38v18.13h-35.38v26.08h35.38v18.53h-54.11V57.94Z"/>
    <path d="M1416.69,57.94h18.1l42.41,65.23V57.94h18.87v99.12h-18.15l-42.36-65.02v65.02h-18.87V57.94Z"/>
  </g>
</svg>